<svg width="268" height="176" viewBox="0 0 268 176" fill="none" xmlns="http://www.w3.org/2000/svg">
<g clip-path="url(#clip0_2_14)">
<path fill-rule="evenodd" clip-rule="evenodd" d="M246 44C258.15 44 268 34.1503 268 22C268 9.84974 258.15 0 246 0C233.85 0 224 9.84974 224 22C224 34.1503 233.85 44 246 44Z" fill="#18204D"/>
<path d="M252.784 20.9277L244.928 28.7836L248.146 32.0009L256.002 24.1451L252.784 20.9277Z" fill="#FFE458"/>
<path fill-rule="evenodd" clip-rule="evenodd" d="M236.272 13.4389L242.893 20.0601C242.888 20.1093 242.885 20.1593 242.885 20.21C242.885 20.9417 243.478 21.535 244.21 21.535C244.942 21.535 245.535 20.9417 245.535 20.21C245.535 19.4782 244.942 18.885 244.21 18.885C244.159 18.885 244.109 18.8878 244.06 18.8933L237.439 12.2723L249.21 14.5H249.22L251.36 22.36L246.36 27.36L238.5 25.21L236.272 13.4389Z" fill="#B5CDFB"/>
<path d="M8.76136 3.36364H10.5227V11.017C10.5227 11.8314 10.3314 12.553 9.94886 13.1818C9.56629 13.8068 9.02841 14.2992 8.33523 14.6591C7.64205 15.0152 6.82955 15.1932 5.89773 15.1932C4.9697 15.1932 4.15909 15.0152 3.46591 14.6591C2.77273 14.2992 2.23485 13.8068 1.85227 13.1818C1.4697 12.553 1.27841 11.8314 1.27841 11.017V3.36364H3.03409V10.875C3.03409 11.4015 3.14962 11.8693 3.38068 12.2784C3.61553 12.6875 3.94697 13.0095 4.375 13.2443C4.80303 13.4754 5.31061 13.5909 5.89773 13.5909C6.48864 13.5909 6.99811 13.4754 7.42614 13.2443C7.85795 13.0095 8.1875 12.6875 8.41477 12.2784C8.64583 11.8693 8.76136 11.4015 8.76136 10.875V3.36364ZM14.831 3.36364V15H13.0753V3.36364H14.831ZM25.3892 15H21.6222V3.36364H25.5085C26.6487 3.36364 27.6278 3.59659 28.446 4.0625C29.2642 4.52462 29.8911 5.18939 30.3267 6.05682C30.7661 6.92045 30.9858 7.95644 30.9858 9.16477C30.9858 10.3769 30.7642 11.4186 30.321 12.2898C29.8816 13.161 29.2453 13.8314 28.4119 14.3011C27.5786 14.767 26.571 15 25.3892 15ZM23.3778 13.4659H25.2926C26.179 13.4659 26.9157 13.2992 27.5028 12.9659C28.09 12.6288 28.5294 12.142 28.821 11.5057C29.1127 10.8655 29.2585 10.0852 29.2585 9.16477C29.2585 8.25189 29.1127 7.47727 28.821 6.84091C28.5331 6.20455 28.1032 5.72159 27.5312 5.39205C26.9593 5.0625 26.2491 4.89773 25.4006 4.89773H23.3778V13.4659ZM33.169 15V3.36364H40.4645V4.875H34.9247V8.42045H40.0838V9.92614H34.9247V13.4886H40.5327V15H33.169ZM49.1562 6.42045C49.0956 5.88258 48.8456 5.46591 48.4062 5.17045C47.9669 4.87121 47.4138 4.72159 46.7472 4.72159C46.2699 4.72159 45.857 4.79735 45.5085 4.94886C45.16 5.09659 44.8892 5.30114 44.696 5.5625C44.5066 5.82008 44.4119 6.11364 44.4119 6.44318C44.4119 6.7197 44.4763 6.95833 44.6051 7.15909C44.7377 7.35985 44.91 7.52841 45.1222 7.66477C45.3381 7.79735 45.5691 7.90909 45.8153 8C46.0616 8.08712 46.2983 8.15909 46.5256 8.21591L47.6619 8.51136C48.0331 8.60227 48.4138 8.72538 48.804 8.88068C49.1941 9.03598 49.5559 9.24053 49.8892 9.49432C50.2225 9.74811 50.4915 10.0625 50.696 10.4375C50.9044 10.8125 51.0085 11.2614 51.0085 11.7841C51.0085 12.4432 50.8381 13.0284 50.4972 13.5398C50.16 14.0511 49.6695 14.4545 49.0256 14.75C48.3854 15.0455 47.6108 15.1932 46.7017 15.1932C45.8305 15.1932 45.0767 15.0549 44.4403 14.7784C43.804 14.5019 43.3059 14.1098 42.946 13.6023C42.5862 13.0909 42.3873 12.4848 42.3494 11.7841H44.1108C44.1449 12.2045 44.2813 12.5549 44.5199 12.8352C44.7623 13.1117 45.071 13.3182 45.446 13.4545C45.8248 13.5871 46.2396 13.6534 46.6903 13.6534C47.1866 13.6534 47.6278 13.5758 48.0142 13.4205C48.4044 13.2614 48.7112 13.0417 48.9347 12.7614C49.1581 12.4773 49.2699 12.1458 49.2699 11.767C49.2699 11.4223 49.1714 11.1402 48.9744 10.9205C48.7813 10.7008 48.518 10.5189 48.1847 10.375C47.8551 10.2311 47.482 10.1042 47.0653 9.99432L45.6903 9.61932C44.7585 9.36553 44.0199 8.99242 43.4744 8.5C42.9328 8.00758 42.6619 7.35606 42.6619 6.54545C42.6619 5.875 42.8438 5.28977 43.2074 4.78977C43.571 4.28977 44.0634 3.90151 44.6847 3.625C45.3059 3.3447 46.0066 3.20455 46.7869 3.20455C47.5748 3.20455 48.2699 3.3428 48.8722 3.61932C49.4782 3.89583 49.9555 4.27652 50.304 4.76136C50.6525 5.24242 50.8343 5.79545 50.8494 6.42045H49.1562ZM54.8622 3.36364V15H53.1065V3.36364H54.8622ZM65.294 7.03977C65.1842 6.69508 65.0365 6.38636 64.8509 6.11364C64.669 5.83712 64.4512 5.60227 64.1974 5.40909C63.9437 5.21212 63.6539 5.0625 63.3281 4.96023C63.0062 4.85795 62.652 4.80682 62.2656 4.80682C61.6103 4.80682 61.0194 4.97538 60.4929 5.3125C59.9664 5.64962 59.5497 6.14394 59.2429 6.79545C58.9399 7.44318 58.7884 8.23674 58.7884 9.17614C58.7884 10.1193 58.9418 10.9167 59.2486 11.5682C59.5554 12.2197 59.9759 12.714 60.5099 13.0511C61.044 13.3883 61.652 13.5568 62.3338 13.5568C62.9664 13.5568 63.5175 13.428 63.9872 13.1705C64.4607 12.9129 64.8262 12.5492 65.0838 12.0795C65.3452 11.6061 65.4759 11.0492 65.4759 10.4091L65.9304 10.4943H62.6009V9.04545H67.1747V10.3693C67.1747 11.3466 66.9664 12.1951 66.5497 12.9148C66.1368 13.6307 65.5649 14.1837 64.8338 14.5739C64.1065 14.964 63.2732 15.1591 62.3338 15.1591C61.2808 15.1591 60.3565 14.9167 59.5611 14.4318C58.7694 13.947 58.152 13.2595 57.7088 12.3693C57.2656 11.4754 57.044 10.4148 57.044 9.1875C57.044 8.25947 57.1728 7.42614 57.4304 6.6875C57.688 5.94886 58.0497 5.32197 58.5156 4.80682C58.9853 4.28788 59.5365 3.89205 60.169 3.61932C60.8054 3.3428 61.5005 3.20455 62.2543 3.20455C62.883 3.20455 63.4683 3.29735 64.0099 3.48295C64.5554 3.66856 65.0402 3.93182 65.4645 4.27273C65.8925 4.61364 66.2467 5.01894 66.527 5.48864C66.8073 5.95455 66.9967 6.47159 67.0952 7.03977H65.294ZM78.7955 3.36364V15H77.1818L71.267 6.46591H71.1591V15H69.4034V3.36364H71.0284L76.9489 11.9091H77.0568V3.36364H78.7955Z" fill="white" fill-opacity="0.8"/>
<path d="M7.99432 29H7.19318C7.13352 28.7017 7.02557 28.4261 6.86932 28.1733C6.71591 27.9176 6.52273 27.6946 6.28977 27.5043C6.05682 27.3139 5.79261 27.1662 5.49716 27.0611C5.2017 26.956 4.8821 26.9034 4.53835 26.9034C3.98722 26.9034 3.48438 27.0469 3.02983 27.3338C2.57813 27.6207 2.21591 28.0426 1.94318 28.5994C1.6733 29.1534 1.53835 29.8324 1.53835 30.6364C1.53835 31.446 1.6733 32.1278 1.94318 32.6818C2.21591 33.2358 2.57813 33.6562 3.02983 33.9432C3.48438 34.2273 3.98722 34.3693 4.53835 34.3693C4.8821 34.3693 5.2017 34.3168 5.49716 34.2116C5.79261 34.1065 6.05682 33.9602 6.28977 33.7727C6.52273 33.5824 6.71591 33.3594 6.86932 33.1037C7.02557 32.848 7.13352 32.571 7.19318 32.2727H7.99432C7.9233 32.6733 7.78977 33.0469 7.59375 33.3935C7.40057 33.7372 7.15341 34.0384 6.85227 34.2969C6.55398 34.5554 6.21023 34.7571 5.82102 34.902C5.43182 35.0469 5.00426 35.1193 4.53835 35.1193C3.8054 35.1193 3.15483 34.9361 2.58665 34.5696C2.01847 34.2003 1.57244 33.6804 1.24858 33.0099C0.927557 32.3395 0.767045 31.5483 0.767045 30.6364C0.767045 29.7244 0.927557 28.9332 1.24858 28.2628C1.57244 27.5923 2.01847 27.0739 2.58665 26.7074C3.15483 26.3381 3.8054 26.1534 4.53835 26.1534C5.00426 26.1534 5.43182 26.2259 5.82102 26.3707C6.21023 26.5128 6.55398 26.7145 6.85227 26.9759C7.15341 27.2344 7.40057 27.5355 7.59375 27.8793C7.78977 28.223 7.9233 28.5966 7.99432 29ZM12.3548 35.1364C11.744 35.1364 11.2156 34.9943 10.7695 34.7102C10.3235 34.4233 9.97834 34.027 9.73402 33.5213C9.49254 33.0128 9.3718 32.4276 9.3718 31.7656C9.3718 31.1065 9.49254 30.5213 9.73402 30.0099C9.97834 29.4957 10.315 29.0937 10.744 28.804C11.1758 28.5114 11.6744 28.3651 12.2397 28.3651C12.5948 28.3651 12.9371 28.4304 13.2667 28.5611C13.5962 28.6889 13.8917 28.8864 14.1531 29.1534C14.4173 29.4176 14.6261 29.7514 14.7795 30.1548C14.9329 30.5554 15.0096 31.0298 15.0096 31.5781V31.9531H9.89595V31.2841H14.234C14.234 30.8636 14.1488 30.4858 13.9783 30.1506C13.8107 29.8125 13.5763 29.5455 13.2752 29.3494C12.9769 29.1534 12.6317 29.0554 12.2397 29.0554C11.8249 29.0554 11.4599 29.1662 11.1445 29.3878C10.8292 29.6094 10.582 29.902 10.4031 30.2656C10.2269 30.6293 10.1374 31.027 10.1346 31.4588V31.8594C10.1346 32.3793 10.2241 32.8338 10.4031 33.223C10.5849 33.6094 10.842 33.9091 11.1744 34.1222C11.5067 34.3352 11.9002 34.4418 12.3548 34.4418C12.6644 34.4418 12.9357 34.3935 13.1687 34.2969C13.4045 34.2003 13.6019 34.071 13.761 33.9091C13.9229 33.7443 14.0451 33.5639 14.1275 33.3679L14.8477 33.6023C14.7482 33.8778 14.5849 34.1321 14.3576 34.3651C14.1332 34.598 13.8519 34.7855 13.5138 34.9276C13.1786 35.0668 12.7923 35.1364 12.3548 35.1364ZM16.6811 35V28.4545H17.4183V29.4602H17.4737C17.6044 29.1307 17.8317 28.8651 18.1555 28.6634C18.4822 28.4588 18.8516 28.3565 19.2635 28.3565C19.326 28.3565 19.3956 28.358 19.4723 28.3608C19.549 28.3636 19.6129 28.3665 19.6641 28.3693V29.1406C19.63 29.1349 19.5703 29.1264 19.4851 29.1151C19.3999 29.1037 19.3075 29.098 19.2081 29.098C18.8672 29.098 18.5632 29.1705 18.2962 29.3153C18.032 29.4574 17.8232 29.6548 17.6697 29.9077C17.5163 30.1605 17.4396 30.4489 17.4396 30.7727V35H16.6811ZM23.9467 28.4545V29.1151H20.8232V28.4545H23.9467ZM21.799 26.8864H22.5618V33.2912C22.5618 33.5639 22.6087 33.7784 22.7024 33.9347C22.7962 34.0881 22.9183 34.1974 23.0689 34.2628C23.2195 34.3253 23.38 34.3565 23.5504 34.3565C23.6499 34.3565 23.7351 34.3509 23.8061 34.3395C23.8771 34.3253 23.9396 34.3111 23.9936 34.2969L24.1555 34.983C24.0817 35.0114 23.9908 35.0369 23.8828 35.0597C23.7749 35.0852 23.6413 35.098 23.4822 35.098C23.2038 35.098 22.9354 35.0369 22.6768 34.9148C22.4212 34.7926 22.2109 34.6108 22.0462 34.3693C21.8814 34.1278 21.799 33.8281 21.799 33.4702V26.8864ZM25.6779 35V28.4545H26.4407V35H25.6779ZM26.0657 27.3295C25.9094 27.3295 25.7759 27.277 25.6651 27.1719C25.5543 27.0639 25.4989 26.9347 25.4989 26.7841C25.4989 26.6335 25.5543 26.5057 25.6651 26.4006C25.7759 26.2926 25.9094 26.2386 26.0657 26.2386C26.2219 26.2386 26.3555 26.2926 26.4663 26.4006C26.5771 26.5057 26.6325 26.6335 26.6325 26.7841C26.6325 26.9347 26.5771 27.0639 26.4663 27.1719C26.3555 27.277 26.2219 27.3295 26.0657 27.3295ZM31.1399 28.4545V29.1151H27.9226V28.4545H31.1399ZM28.9283 35V27.4957C28.9283 27.1435 29.0092 26.8466 29.1712 26.6051C29.3359 26.3636 29.5504 26.1804 29.8146 26.0554C30.0788 25.9304 30.3587 25.8679 30.6541 25.8679C30.853 25.8679 31.0178 25.8849 31.1484 25.919C31.282 25.9503 31.3871 25.9815 31.4638 26.0128L31.2422 26.6776C31.1854 26.6605 31.1158 26.6406 31.0334 26.6179C30.951 26.5952 30.8473 26.5838 30.7223 26.5838C30.3928 26.5838 30.1385 26.6761 29.9595 26.8608C29.7805 27.0455 29.6911 27.3097 29.6911 27.6534L29.6868 35H28.9283ZM32.6623 35V28.4545H33.4251V35H32.6623ZM33.0501 27.3295C32.8938 27.3295 32.7603 27.277 32.6495 27.1719C32.5387 27.0639 32.4833 26.9347 32.4833 26.7841C32.4833 26.6335 32.5387 26.5057 32.6495 26.4006C32.7603 26.2926 32.8938 26.2386 33.0501 26.2386C33.2063 26.2386 33.3398 26.2926 33.4506 26.4006C33.5614 26.5057 33.6168 26.6335 33.6168 26.7841C33.6168 26.9347 33.5614 27.0639 33.4506 27.1719C33.3398 27.277 33.2063 27.3295 33.0501 27.3295ZM37.9879 35.1364C37.4027 35.1364 36.8928 34.9901 36.4581 34.6974C36.0263 34.4048 35.6911 34.0043 35.4524 33.4957C35.2138 32.9872 35.0945 32.4077 35.0945 31.7571C35.0945 31.1009 35.2152 30.517 35.4567 30.0057C35.701 29.4943 36.0391 29.0937 36.4709 28.804C36.9027 28.5114 37.4041 28.3651 37.9751 28.3651C38.4126 28.3651 38.8089 28.4503 39.1641 28.6207C39.5192 28.7884 39.8118 29.0256 40.0419 29.3324C40.2749 29.6364 40.4212 29.9915 40.4808 30.3977H39.7138C39.6342 30.0284 39.4425 29.7131 39.1385 29.4517C38.8374 29.1875 38.4538 29.0554 37.9879 29.0554C37.5703 29.0554 37.201 29.169 36.88 29.3963C36.5589 29.6207 36.3075 29.9347 36.1257 30.3381C35.9467 30.7386 35.8572 31.2031 35.8572 31.7315C35.8572 32.2628 35.9453 32.733 36.1214 33.142C36.2976 33.5483 36.5447 33.8665 36.8629 34.0966C37.1839 34.3267 37.5589 34.4418 37.9879 34.4418C38.2777 34.4418 38.5419 34.3878 38.7805 34.2798C39.022 34.169 39.2237 34.0128 39.3857 33.8111C39.5504 33.6094 39.6612 33.3693 39.718 33.0909H40.4851C40.4283 33.4858 40.2876 33.8381 40.0632 34.1477C39.8416 34.4545 39.5533 34.696 39.1982 34.8722C38.8459 35.0483 38.4425 35.1364 37.9879 35.1364ZM43.9389 35.1491C43.544 35.1491 43.1832 35.0724 42.8565 34.919C42.5298 34.7628 42.2699 34.5384 42.0767 34.2457C41.8835 33.9503 41.7869 33.5923 41.7869 33.1719C41.7869 32.848 41.848 32.5753 41.9702 32.3537C42.0923 32.1321 42.2656 31.9503 42.4901 31.8082C42.7145 31.6662 42.9801 31.554 43.2869 31.4716C43.5938 31.3892 43.9318 31.3253 44.3011 31.2798C44.6676 31.2344 44.9773 31.1946 45.2301 31.1605C45.4858 31.1264 45.6804 31.0724 45.8139 30.9986C45.9474 30.9247 46.0142 30.8054 46.0142 30.6406V30.4872C46.0142 30.0412 45.8807 29.6903 45.6136 29.4347C45.3494 29.1761 44.9688 29.0469 44.4716 29.0469C44 29.0469 43.6151 29.1506 43.3168 29.358C43.0213 29.5653 42.8139 29.8097 42.6946 30.0909L41.9744 29.831C42.1222 29.473 42.3267 29.1875 42.5881 28.9744C42.8494 28.7585 43.142 28.6037 43.4659 28.5099C43.7898 28.4134 44.1179 28.3651 44.4503 28.3651C44.7003 28.3651 44.9602 28.3977 45.2301 28.4631C45.5028 28.5284 45.7557 28.642 45.9886 28.804C46.2216 28.9631 46.4105 29.1861 46.5554 29.473C46.7003 29.7571 46.7727 30.1179 46.7727 30.5554V35H46.0142V33.9645H45.9673C45.8764 34.1577 45.7415 34.3452 45.5625 34.527C45.3835 34.7088 45.1591 34.858 44.8892 34.9744C44.6193 35.0909 44.3026 35.1491 43.9389 35.1491ZM44.0412 34.4545C44.4446 34.4545 44.794 34.3651 45.0895 34.1861C45.3849 34.0071 45.6122 33.7699 45.7713 33.4744C45.9332 33.1761 46.0142 32.848 46.0142 32.4901V31.544C45.9574 31.598 45.8622 31.6463 45.7287 31.6889C45.598 31.7315 45.446 31.7699 45.2727 31.804C45.1023 31.8352 44.9318 31.8622 44.7614 31.8849C44.5909 31.9077 44.4375 31.9276 44.3011 31.9446C43.9318 31.9901 43.6165 32.0611 43.3551 32.1577C43.0938 32.2543 42.8935 32.3878 42.7543 32.5582C42.6151 32.7259 42.5455 32.9418 42.5455 33.206C42.5455 33.6037 42.6875 33.9119 42.9716 34.1307C43.2557 34.3466 43.6122 34.4545 44.0412 34.4545ZM51.3686 28.4545V29.1151H48.245V28.4545H51.3686ZM49.2209 26.8864H49.9837V33.2912C49.9837 33.5639 50.0305 33.7784 50.1243 33.9347C50.218 34.0881 50.3402 34.1974 50.4908 34.2628C50.6413 34.3253 50.8018 34.3565 50.9723 34.3565C51.0717 34.3565 51.157 34.3509 51.228 34.3395C51.299 34.3253 51.3615 34.3111 51.4155 34.2969L51.5774 34.983C51.5036 35.0114 51.4126 35.0369 51.3047 35.0597C51.1967 35.0852 51.0632 35.098 50.9041 35.098C50.6257 35.098 50.3572 35.0369 50.0987 34.9148C49.843 34.7926 49.6328 34.6108 49.468 34.3693C49.3033 34.1278 49.2209 33.8281 49.2209 33.4702V26.8864ZM55.6673 35.1364C55.0565 35.1364 54.5281 34.9943 54.082 34.7102C53.636 34.4233 53.2908 34.027 53.0465 33.5213C52.805 33.0128 52.6843 32.4276 52.6843 31.7656C52.6843 31.1065 52.805 30.5213 53.0465 30.0099C53.2908 29.4957 53.6275 29.0937 54.0565 28.804C54.4883 28.5114 54.9869 28.3651 55.5522 28.3651C55.9073 28.3651 56.2496 28.4304 56.5792 28.5611C56.9087 28.6889 57.2042 28.8864 57.4656 29.1534C57.7298 29.4176 57.9386 29.7514 58.092 30.1548C58.2454 30.5554 58.3221 31.0298 58.3221 31.5781V31.9531H53.2085V31.2841H57.5465C57.5465 30.8636 57.4613 30.4858 57.2908 30.1506C57.1232 29.8125 56.8888 29.5455 56.5877 29.3494C56.2894 29.1534 55.9442 29.0554 55.5522 29.0554C55.1374 29.0554 54.7724 29.1662 54.457 29.3878C54.1417 29.6094 53.8945 29.902 53.7156 30.2656C53.5394 30.6293 53.4499 31.027 53.4471 31.4588V31.8594C53.4471 32.3793 53.5366 32.8338 53.7156 33.223C53.8974 33.6094 54.1545 33.9091 54.4869 34.1222C54.8192 34.3352 55.2127 34.4418 55.6673 34.4418C55.9769 34.4418 56.2482 34.3935 56.4812 34.2969C56.717 34.2003 56.9144 34.071 57.0735 33.9091C57.2354 33.7443 57.3576 33.5639 57.44 33.3679L58.1602 33.6023C58.0607 33.8778 57.8974 34.1321 57.6701 34.3651C57.4457 34.598 57.1644 34.7855 56.8263 34.9276C56.4911 35.0668 56.1048 35.1364 55.6673 35.1364Z" fill="white" fill-opacity="0.8"/>
<rect y="119" width="47" height="4" rx="2" fill="white" fill-opacity="0.3"/>
<rect y="133" width="77" height="4" rx="2" fill="white" fill-opacity="0.3"/>
<rect y="147" width="64" height="4" rx="2" fill="white" fill-opacity="0.3"/>
<rect y="161" width="99" height="6" rx="3" fill="white" fill-opacity="0.4"/>
</g>
<defs>
<clipPath id="clip0_2_14">
<rect width="268" height="176" fill="white"/>
</clipPath>
</defs>
</svg>
