<svg width="268" height="176" viewBox="0 0 268 176" fill="none" xmlns="http://www.w3.org/2000/svg">
<g clip-path="url(#clip0_3_50)">
<path fill-rule="evenodd" clip-rule="evenodd" d="M246 44C258.15 44 268 34.1503 268 22C268 9.84974 258.15 0 246 0C233.85 0 224 9.84974 224 22C224 34.1503 233.85 44 246 44Z" fill="#18204D"/>
<path d="M252.784 20.9277L244.928 28.7836L248.146 32.0009L256.002 24.1451L252.784 20.9277Z" fill="#FFE458"/>
<path fill-rule="evenodd" clip-rule="evenodd" d="M236.272 13.4389L242.893 20.0601C242.888 20.1093 242.885 20.1593 242.885 20.21C242.885 20.9417 243.478 21.535 244.21 21.535C244.942 21.535 245.535 20.9417 245.535 20.21C245.535 19.4782 244.942 18.885 244.21 18.885C244.159 18.885 244.109 18.8878 244.06 18.8933L237.439 12.2723L249.21 14.5H249.22L251.36 22.36L246.36 27.36L238.5 25.21L236.272 13.4389Z" fill="#B5CDFB"/>
<path fill-rule="evenodd" clip-rule="evenodd" d="M246 44C258.15 44 268 34.1503 268 22C268 9.84974 258.15 0 246 0C233.85 0 224 9.84974 224 22C224 34.1503 233.85 44 246 44Z" fill="#18204D"/>
<g filter="url(#filter0_d_3_50)">
<path d="M251.203 30.2188C248.466 31.8226 244.703 31.9874 240.918 30.3414C237.852 29.0184 235.309 26.7025 233.679 24.0565C234.461 24.718 235.374 25.2474 236.353 25.7103C240.262 27.5692 244.171 27.4419 246.921 25.715C246.92 25.7132 246.918 25.712 246.917 25.7103C243.004 22.6669 239.678 18.6973 237.201 15.4558C236.679 14.9265 236.287 14.2649 235.896 13.6695C238.896 16.4481 243.657 19.9543 245.352 20.9472C241.766 17.1096 238.57 12.3465 238.7 12.4785C244.374 18.3006 249.656 21.6087 249.656 21.6087C249.831 21.7086 249.966 21.7919 250.074 21.8662C250.189 21.5712 250.289 21.2648 250.373 20.9472C251.286 17.573 250.243 13.7355 247.961 10.5601C253.243 13.8018 256.373 19.8883 255.069 24.9828C255.035 25.1202 254.998 25.2558 254.958 25.3891C254.973 25.4075 254.988 25.4266 255.003 25.4462C257.612 28.7543 256.894 32.2605 256.568 31.599C255.154 28.79 252.534 29.649 251.203 30.2189V30.2188Z" fill="#00CFFD"/>
</g>
<path d="M7.625 6.42045C7.56439 5.88258 7.31439 5.46591 6.875 5.17045C6.43561 4.87121 5.88258 4.72159 5.21591 4.72159C4.73864 4.72159 4.32576 4.79735 3.97727 4.94886C3.62879 5.09659 3.35795 5.30114 3.16477 5.5625C2.97538 5.82008 2.88068 6.11364 2.88068 6.44318C2.88068 6.7197 2.94508 6.95833 3.07386 7.15909C3.20644 7.35985 3.37879 7.52841 3.59091 7.66477C3.80682 7.79735 4.03788 7.90909 4.28409 8C4.5303 8.08712 4.76705 8.15909 4.99432 8.21591L6.13068 8.51136C6.50189 8.60227 6.88258 8.72538 7.27273 8.88068C7.66288 9.03598 8.02462 9.24053 8.35795 9.49432C8.69129 9.74811 8.96023 10.0625 9.16477 10.4375C9.37311 10.8125 9.47727 11.2614 9.47727 11.7841C9.47727 12.4432 9.30682 13.0284 8.96591 13.5398C8.62879 14.0511 8.13826 14.4545 7.49432 14.75C6.85417 15.0455 6.07955 15.1932 5.17045 15.1932C4.29924 15.1932 3.54545 15.0549 2.90909 14.7784C2.27273 14.5019 1.77462 14.1098 1.41477 13.6023C1.05492 13.0909 0.856061 12.4848 0.818182 11.7841H2.57955C2.61364 12.2045 2.75 12.5549 2.98864 12.8352C3.23106 13.1117 3.53977 13.3182 3.91477 13.4545C4.29356 13.5871 4.70833 13.6534 5.15909 13.6534C5.6553 13.6534 6.09659 13.5758 6.48295 13.4205C6.87311 13.2614 7.17992 13.0417 7.40341 12.7614C7.62689 12.4773 7.73864 12.1458 7.73864 11.767C7.73864 11.4223 7.64015 11.1402 7.44318 10.9205C7.25 10.7008 6.98674 10.5189 6.65341 10.375C6.32386 10.2311 5.95076 10.1042 5.53409 9.99432L4.15909 9.61932C3.22727 9.36553 2.48864 8.99242 1.94318 8.5C1.40152 8.00758 1.13068 7.35606 1.13068 6.54545C1.13068 5.875 1.3125 5.28977 1.67614 4.78977C2.03977 4.28977 2.5322 3.90151 3.15341 3.625C3.77462 3.3447 4.47538 3.20455 5.25568 3.20455C6.04356 3.20455 6.73864 3.3428 7.34091 3.61932C7.94697 3.89583 8.42424 4.27652 8.77273 4.76136C9.12121 5.24242 9.30303 5.79545 9.31818 6.42045H7.625ZM13.331 15L10.7628 6.27273H12.5185L14.2287 12.6818H14.3139L16.0298 6.27273H17.7855L19.4901 12.6534H19.5753L21.2741 6.27273H23.0298L20.4673 15H18.7344L16.9616 8.69886H16.831L15.0582 15H13.331ZM24.642 15V6.27273H26.3409V15H24.642ZM25.5 4.92614C25.2045 4.92614 24.9508 4.82765 24.7386 4.63068C24.5303 4.42992 24.4261 4.19129 24.4261 3.91477C24.4261 3.63447 24.5303 3.39583 24.7386 3.19886C24.9508 2.99811 25.2045 2.89773 25.5 2.89773C25.7955 2.89773 26.0473 2.99811 26.2557 3.19886C26.4678 3.39583 26.5739 3.63447 26.5739 3.91477C26.5739 4.19129 26.4678 4.42992 26.2557 4.63068C26.0473 4.82765 25.7955 4.92614 25.5 4.92614ZM32.7798 6.27273V7.63636H27.848V6.27273H32.7798ZM29.2003 15V5.26136C29.2003 4.71591 29.3196 4.26326 29.5582 3.90341C29.7969 3.53977 30.1132 3.26894 30.5071 3.09091C30.901 2.90909 31.3291 2.81818 31.7912 2.81818C32.1321 2.81818 32.4238 2.84659 32.6662 2.90341C32.9086 2.95644 33.0885 3.00568 33.206 3.05114L32.8082 4.42614C32.7287 4.40341 32.6264 4.37689 32.5014 4.34659C32.3764 4.3125 32.2249 4.29545 32.0469 4.29545C31.634 4.29545 31.3385 4.39773 31.1605 4.60227C30.9863 4.80682 30.8991 5.10227 30.8991 5.48864V15H29.2003ZM38.6065 6.27273V7.63636H33.8395V6.27273H38.6065ZM35.1179 4.18182H36.8168V12.4375C36.8168 12.767 36.866 13.0152 36.9645 13.1818C37.063 13.3447 37.1899 13.4564 37.3452 13.517C37.5043 13.5739 37.6766 13.6023 37.8622 13.6023C37.9986 13.6023 38.1179 13.5928 38.2202 13.5739C38.3224 13.5549 38.402 13.5398 38.4588 13.5284L38.7656 14.9318C38.6671 14.9697 38.527 15.0076 38.3452 15.0455C38.1634 15.0871 37.9361 15.1098 37.6634 15.1136C37.2164 15.1212 36.7997 15.0417 36.4134 14.875C36.027 14.7083 35.7145 14.4508 35.4759 14.1023C35.2372 13.7538 35.1179 13.3163 35.1179 12.7898V4.18182ZM48.1051 3.36364H49.8665V11.017C49.8665 11.8314 49.6752 12.553 49.2926 13.1818C48.91 13.8068 48.3722 14.2992 47.679 14.6591C46.9858 15.0152 46.1733 15.1932 45.2415 15.1932C44.3134 15.1932 43.5028 15.0152 42.8097 14.6591C42.1165 14.2992 41.5786 13.8068 41.196 13.1818C40.8134 12.553 40.6222 11.8314 40.6222 11.017V3.36364H42.3778V10.875C42.3778 11.4015 42.4934 11.8693 42.7244 12.2784C42.9593 12.6875 43.2907 13.0095 43.7188 13.2443C44.1468 13.4754 44.6544 13.5909 45.2415 13.5909C45.8324 13.5909 46.3419 13.4754 46.7699 13.2443C47.2017 13.0095 47.5313 12.6875 47.7585 12.2784C47.9896 11.8693 48.1051 11.4015 48.1051 10.875V3.36364ZM54.1747 3.36364V15H52.419V3.36364H54.1747Z" fill="white" fill-opacity="0.8"/>
<path d="M7.99432 29H7.19318C7.13352 28.7017 7.02557 28.4261 6.86932 28.1733C6.71591 27.9176 6.52273 27.6946 6.28977 27.5043C6.05682 27.3139 5.79261 27.1662 5.49716 27.0611C5.2017 26.956 4.8821 26.9034 4.53835 26.9034C3.98722 26.9034 3.48438 27.0469 3.02983 27.3338C2.57813 27.6207 2.21591 28.0426 1.94318 28.5994C1.6733 29.1534 1.53835 29.8324 1.53835 30.6364C1.53835 31.446 1.6733 32.1278 1.94318 32.6818C2.21591 33.2358 2.57813 33.6562 3.02983 33.9432C3.48438 34.2273 3.98722 34.3693 4.53835 34.3693C4.8821 34.3693 5.2017 34.3168 5.49716 34.2116C5.79261 34.1065 6.05682 33.9602 6.28977 33.7727C6.52273 33.5824 6.71591 33.3594 6.86932 33.1037C7.02557 32.848 7.13352 32.571 7.19318 32.2727H7.99432C7.9233 32.6733 7.78977 33.0469 7.59375 33.3935C7.40057 33.7372 7.15341 34.0384 6.85227 34.2969C6.55398 34.5554 6.21023 34.7571 5.82102 34.902C5.43182 35.0469 5.00426 35.1193 4.53835 35.1193C3.8054 35.1193 3.15483 34.9361 2.58665 34.5696C2.01847 34.2003 1.57244 33.6804 1.24858 33.0099C0.927557 32.3395 0.767045 31.5483 0.767045 30.6364C0.767045 29.7244 0.927557 28.9332 1.24858 28.2628C1.57244 27.5923 2.01847 27.0739 2.58665 26.7074C3.15483 26.3381 3.8054 26.1534 4.53835 26.1534C5.00426 26.1534 5.43182 26.2259 5.82102 26.3707C6.21023 26.5128 6.55398 26.7145 6.85227 26.9759C7.15341 27.2344 7.40057 27.5355 7.59375 27.8793C7.78977 28.223 7.9233 28.5966 7.99432 29ZM12.3548 35.1364C11.744 35.1364 11.2156 34.9943 10.7695 34.7102C10.3235 34.4233 9.97834 34.027 9.73402 33.5213C9.49254 33.0128 9.3718 32.4276 9.3718 31.7656C9.3718 31.1065 9.49254 30.5213 9.73402 30.0099C9.97834 29.4957 10.315 29.0937 10.744 28.804C11.1758 28.5114 11.6744 28.3651 12.2397 28.3651C12.5948 28.3651 12.9371 28.4304 13.2667 28.5611C13.5962 28.6889 13.8917 28.8864 14.1531 29.1534C14.4173 29.4176 14.6261 29.7514 14.7795 30.1548C14.9329 30.5554 15.0096 31.0298 15.0096 31.5781V31.9531H9.89595V31.2841H14.234C14.234 30.8636 14.1488 30.4858 13.9783 30.1506C13.8107 29.8125 13.5763 29.5455 13.2752 29.3494C12.9769 29.1534 12.6317 29.0554 12.2397 29.0554C11.8249 29.0554 11.4599 29.1662 11.1445 29.3878C10.8292 29.6094 10.582 29.902 10.4031 30.2656C10.2269 30.6293 10.1374 31.027 10.1346 31.4588V31.8594C10.1346 32.3793 10.2241 32.8338 10.4031 33.223C10.5849 33.6094 10.842 33.9091 11.1744 34.1222C11.5067 34.3352 11.9002 34.4418 12.3548 34.4418C12.6644 34.4418 12.9357 34.3935 13.1687 34.2969C13.4045 34.2003 13.6019 34.071 13.761 33.9091C13.9229 33.7443 14.0451 33.5639 14.1275 33.3679L14.8477 33.6023C14.7482 33.8778 14.5849 34.1321 14.3576 34.3651C14.1332 34.598 13.8519 34.7855 13.5138 34.9276C13.1786 35.0668 12.7923 35.1364 12.3548 35.1364ZM16.6811 35V28.4545H17.4183V29.4602H17.4737C17.6044 29.1307 17.8317 28.8651 18.1555 28.6634C18.4822 28.4588 18.8516 28.3565 19.2635 28.3565C19.326 28.3565 19.3956 28.358 19.4723 28.3608C19.549 28.3636 19.6129 28.3665 19.6641 28.3693V29.1406C19.63 29.1349 19.5703 29.1264 19.4851 29.1151C19.3999 29.1037 19.3075 29.098 19.2081 29.098C18.8672 29.098 18.5632 29.1705 18.2962 29.3153C18.032 29.4574 17.8232 29.6548 17.6697 29.9077C17.5163 30.1605 17.4396 30.4489 17.4396 30.7727V35H16.6811ZM23.9467 28.4545V29.1151H20.8232V28.4545H23.9467ZM21.799 26.8864H22.5618V33.2912C22.5618 33.5639 22.6087 33.7784 22.7024 33.9347C22.7962 34.0881 22.9183 34.1974 23.0689 34.2628C23.2195 34.3253 23.38 34.3565 23.5504 34.3565C23.6499 34.3565 23.7351 34.3509 23.8061 34.3395C23.8771 34.3253 23.9396 34.3111 23.9936 34.2969L24.1555 34.983C24.0817 35.0114 23.9908 35.0369 23.8828 35.0597C23.7749 35.0852 23.6413 35.098 23.4822 35.098C23.2038 35.098 22.9354 35.0369 22.6768 34.9148C22.4212 34.7926 22.2109 34.6108 22.0462 34.3693C21.8814 34.1278 21.799 33.8281 21.799 33.4702V26.8864ZM25.6779 35V28.4545H26.4407V35H25.6779ZM26.0657 27.3295C25.9094 27.3295 25.7759 27.277 25.6651 27.1719C25.5543 27.0639 25.4989 26.9347 25.4989 26.7841C25.4989 26.6335 25.5543 26.5057 25.6651 26.4006C25.7759 26.2926 25.9094 26.2386 26.0657 26.2386C26.2219 26.2386 26.3555 26.2926 26.4663 26.4006C26.5771 26.5057 26.6325 26.6335 26.6325 26.7841C26.6325 26.9347 26.5771 27.0639 26.4663 27.1719C26.3555 27.277 26.2219 27.3295 26.0657 27.3295ZM31.1399 28.4545V29.1151H27.9226V28.4545H31.1399ZM28.9283 35V27.4957C28.9283 27.1435 29.0092 26.8466 29.1712 26.6051C29.3359 26.3636 29.5504 26.1804 29.8146 26.0554C30.0788 25.9304 30.3587 25.8679 30.6541 25.8679C30.853 25.8679 31.0178 25.8849 31.1484 25.919C31.282 25.9503 31.3871 25.9815 31.4638 26.0128L31.2422 26.6776C31.1854 26.6605 31.1158 26.6406 31.0334 26.6179C30.951 26.5952 30.8473 26.5838 30.7223 26.5838C30.3928 26.5838 30.1385 26.6761 29.9595 26.8608C29.7805 27.0455 29.6911 27.3097 29.6911 27.6534L29.6868 35H28.9283ZM32.6623 35V28.4545H33.4251V35H32.6623ZM33.0501 27.3295C32.8938 27.3295 32.7603 27.277 32.6495 27.1719C32.5387 27.0639 32.4833 26.9347 32.4833 26.7841C32.4833 26.6335 32.5387 26.5057 32.6495 26.4006C32.7603 26.2926 32.8938 26.2386 33.0501 26.2386C33.2063 26.2386 33.3398 26.2926 33.4506 26.4006C33.5614 26.5057 33.6168 26.6335 33.6168 26.7841C33.6168 26.9347 33.5614 27.0639 33.4506 27.1719C33.3398 27.277 33.2063 27.3295 33.0501 27.3295ZM37.9879 35.1364C37.4027 35.1364 36.8928 34.9901 36.4581 34.6974C36.0263 34.4048 35.6911 34.0043 35.4524 33.4957C35.2138 32.9872 35.0945 32.4077 35.0945 31.7571C35.0945 31.1009 35.2152 30.517 35.4567 30.0057C35.701 29.4943 36.0391 29.0937 36.4709 28.804C36.9027 28.5114 37.4041 28.3651 37.9751 28.3651C38.4126 28.3651 38.8089 28.4503 39.1641 28.6207C39.5192 28.7884 39.8118 29.0256 40.0419 29.3324C40.2749 29.6364 40.4212 29.9915 40.4808 30.3977H39.7138C39.6342 30.0284 39.4425 29.7131 39.1385 29.4517C38.8374 29.1875 38.4538 29.0554 37.9879 29.0554C37.5703 29.0554 37.201 29.169 36.88 29.3963C36.5589 29.6207 36.3075 29.9347 36.1257 30.3381C35.9467 30.7386 35.8572 31.2031 35.8572 31.7315C35.8572 32.2628 35.9453 32.733 36.1214 33.142C36.2976 33.5483 36.5447 33.8665 36.8629 34.0966C37.1839 34.3267 37.5589 34.4418 37.9879 34.4418C38.2777 34.4418 38.5419 34.3878 38.7805 34.2798C39.022 34.169 39.2237 34.0128 39.3857 33.8111C39.5504 33.6094 39.6612 33.3693 39.718 33.0909H40.4851C40.4283 33.4858 40.2876 33.8381 40.0632 34.1477C39.8416 34.4545 39.5533 34.696 39.1982 34.8722C38.8459 35.0483 38.4425 35.1364 37.9879 35.1364ZM43.9389 35.1491C43.544 35.1491 43.1832 35.0724 42.8565 34.919C42.5298 34.7628 42.2699 34.5384 42.0767 34.2457C41.8835 33.9503 41.7869 33.5923 41.7869 33.1719C41.7869 32.848 41.848 32.5753 41.9702 32.3537C42.0923 32.1321 42.2656 31.9503 42.4901 31.8082C42.7145 31.6662 42.9801 31.554 43.2869 31.4716C43.5938 31.3892 43.9318 31.3253 44.3011 31.2798C44.6676 31.2344 44.9773 31.1946 45.2301 31.1605C45.4858 31.1264 45.6804 31.0724 45.8139 30.9986C45.9474 30.9247 46.0142 30.8054 46.0142 30.6406V30.4872C46.0142 30.0412 45.8807 29.6903 45.6136 29.4347C45.3494 29.1761 44.9688 29.0469 44.4716 29.0469C44 29.0469 43.6151 29.1506 43.3168 29.358C43.0213 29.5653 42.8139 29.8097 42.6946 30.0909L41.9744 29.831C42.1222 29.473 42.3267 29.1875 42.5881 28.9744C42.8494 28.7585 43.142 28.6037 43.4659 28.5099C43.7898 28.4134 44.1179 28.3651 44.4503 28.3651C44.7003 28.3651 44.9602 28.3977 45.2301 28.4631C45.5028 28.5284 45.7557 28.642 45.9886 28.804C46.2216 28.9631 46.4105 29.1861 46.5554 29.473C46.7003 29.7571 46.7727 30.1179 46.7727 30.5554V35H46.0142V33.9645H45.9673C45.8764 34.1577 45.7415 34.3452 45.5625 34.527C45.3835 34.7088 45.1591 34.858 44.8892 34.9744C44.6193 35.0909 44.3026 35.1491 43.9389 35.1491ZM44.0412 34.4545C44.4446 34.4545 44.794 34.3651 45.0895 34.1861C45.3849 34.0071 45.6122 33.7699 45.7713 33.4744C45.9332 33.1761 46.0142 32.848 46.0142 32.4901V31.544C45.9574 31.598 45.8622 31.6463 45.7287 31.6889C45.598 31.7315 45.446 31.7699 45.2727 31.804C45.1023 31.8352 44.9318 31.8622 44.7614 31.8849C44.5909 31.9077 44.4375 31.9276 44.3011 31.9446C43.9318 31.9901 43.6165 32.0611 43.3551 32.1577C43.0938 32.2543 42.8935 32.3878 42.7543 32.5582C42.6151 32.7259 42.5455 32.9418 42.5455 33.206C42.5455 33.6037 42.6875 33.9119 42.9716 34.1307C43.2557 34.3466 43.6122 34.4545 44.0412 34.4545ZM51.3686 28.4545V29.1151H48.245V28.4545H51.3686ZM49.2209 26.8864H49.9837V33.2912C49.9837 33.5639 50.0305 33.7784 50.1243 33.9347C50.218 34.0881 50.3402 34.1974 50.4908 34.2628C50.6413 34.3253 50.8018 34.3565 50.9723 34.3565C51.0717 34.3565 51.157 34.3509 51.228 34.3395C51.299 34.3253 51.3615 34.3111 51.4155 34.2969L51.5774 34.983C51.5036 35.0114 51.4126 35.0369 51.3047 35.0597C51.1967 35.0852 51.0632 35.098 50.9041 35.098C50.6257 35.098 50.3572 35.0369 50.0987 34.9148C49.843 34.7926 49.6328 34.6108 49.468 34.3693C49.3033 34.1278 49.2209 33.8281 49.2209 33.4702V26.8864ZM55.6673 35.1364C55.0565 35.1364 54.5281 34.9943 54.082 34.7102C53.636 34.4233 53.2908 34.027 53.0465 33.5213C52.805 33.0128 52.6843 32.4276 52.6843 31.7656C52.6843 31.1065 52.805 30.5213 53.0465 30.0099C53.2908 29.4957 53.6275 29.0937 54.0565 28.804C54.4883 28.5114 54.9869 28.3651 55.5522 28.3651C55.9073 28.3651 56.2496 28.4304 56.5792 28.5611C56.9087 28.6889 57.2042 28.8864 57.4656 29.1534C57.7298 29.4176 57.9386 29.7514 58.092 30.1548C58.2454 30.5554 58.3221 31.0298 58.3221 31.5781V31.9531H53.2085V31.2841H57.5465C57.5465 30.8636 57.4613 30.4858 57.2908 30.1506C57.1232 29.8125 56.8888 29.5455 56.5877 29.3494C56.2894 29.1534 55.9442 29.0554 55.5522 29.0554C55.1374 29.0554 54.7724 29.1662 54.457 29.3878C54.1417 29.6094 53.8945 29.902 53.7156 30.2656C53.5394 30.6293 53.4499 31.027 53.4471 31.4588V31.8594C53.4471 32.3793 53.5366 32.8338 53.7156 33.223C53.8974 33.6094 54.1545 33.9091 54.4869 34.1222C54.8192 34.3352 55.2127 34.4418 55.6673 34.4418C55.9769 34.4418 56.2482 34.3935 56.4812 34.2969C56.717 34.2003 56.9144 34.071 57.0735 33.9091C57.2354 33.7443 57.3576 33.5639 57.44 33.3679L58.1602 33.6023C58.0607 33.8778 57.8974 34.1321 57.6701 34.3651C57.4457 34.598 57.1644 34.7855 56.8263 34.9276C56.4911 35.0668 56.1048 35.1364 55.6673 35.1364Z" fill="white" fill-opacity="0.8"/>
<rect y="119" width="47" height="4" rx="2" fill="white" fill-opacity="0.5"/>
<rect y="133" width="77" height="4" rx="2" fill="white" fill-opacity="0.5"/>
<rect y="147" width="64" height="4" rx="2" fill="white" fill-opacity="0.5"/>
<rect y="161" width="99" height="6" rx="3" fill="white" fill-opacity="0.6"/>
</g>
<defs>
<filter id="filter0_d_3_50" x="165.849" y="-57.2701" width="158.892" height="156.78" filterUnits="userSpaceOnUse" color-interpolation-filters="sRGB">
<feFlood flood-opacity="0" result="BackgroundImageFix"/>
<feColorMatrix in="SourceAlpha" type="matrix" values="0 0 0 0 0 0 0 0 0 0 0 0 0 0 0 0 0 0 127 0" result="hardAlpha"/>
<feOffset/>
<feGaussianBlur stdDeviation="33.9151"/>
<feColorMatrix type="matrix" values="0 0 0 0 0.250017 0 0 0 0 0.215353 0 0 0 0 0.847968 0 0 0 0.610768 0"/>
<feBlend mode="normal" in2="BackgroundImageFix" result="effect1_dropShadow_3_50"/>
<feBlend mode="normal" in="SourceGraphic" in2="effect1_dropShadow_3_50" result="shape"/>
</filter>
<clipPath id="clip0_3_50">
<rect width="268" height="176" fill="white"/>
</clipPath>
</defs>
</svg>
