<svg width="130" height="130" viewBox="0 0 130 130" fill="none" xmlns="http://www.w3.org/2000/svg">
<g id="Gear2">
<path id="Gear" fill-rule="evenodd" clip-rule="evenodd" d="M38.5685 19.5476C38.6081 20.2805 38.2418 20.9736 37.6258 21.3727C36.5386 22.0771 35.4798 22.8217 34.4516 23.6045C33.8624 24.053 33.078 24.1608 32.3984 23.8669L20.7185 18.8161C19.8827 18.4547 18.9083 18.7028 18.3471 19.4199L11.249 28.4898C10.6849 29.2105 10.6814 30.222 11.2404 30.9466L18.7711 40.7086C19.2379 41.3137 19.3164 42.1303 18.9953 42.8238C18.3094 44.305 17.6924 45.8246 17.1485 47.3785C16.9049 48.0744 16.3138 48.5954 15.5884 48.7273L3.19321 50.981C2.34909 51.1345 1.69658 51.8087 1.57085 52.6574L0.0217643 63.1137C-0.119073 64.0644 0.435425 64.981 1.34283 65.2976L13.4142 69.5085C14.1425 69.7625 14.6566 70.4128 14.7602 71.1771C14.9871 72.8497 15.2949 74.4966 15.6797 76.1137C15.8497 76.8281 15.6358 77.5827 15.1006 78.0855L5.85297 86.7727C5.21674 87.3703 5.04108 88.3113 5.41882 89.0983L10.0996 98.8498C10.5039 99.6922 11.4371 100.143 12.3482 99.9358L24.8349 97.0979C25.5706 96.9307 26.3354 97.1935 26.8309 97.7625C27.9585 99.0575 29.1503 100.295 30.4013 101.47C30.9284 101.965 31.1665 102.699 31.0097 103.405L28.1305 116.361C27.9394 117.221 28.3329 118.105 29.0998 118.538L37.9224 123.525C38.7395 123.987 39.7678 123.819 40.3957 123.121L48.7761 113.81C49.3043 113.223 50.1272 113.005 50.8845 113.228C52.8434 113.805 54.8514 114.269 56.9006 114.61C57.6555 114.736 58.2864 115.262 58.5225 115.99L62.3611 127.825C62.6457 128.703 63.4933 129.273 64.4135 129.204L74.8502 128.431C75.7436 128.365 76.4843 127.714 76.6638 126.836L79.1809 114.53C79.3304 113.799 79.8751 113.215 80.5874 112.993C82.1999 112.489 83.778 111.908 85.3174 111.253C86.0113 110.958 86.8135 111.055 87.4023 111.526L97.1545 119.328C97.8758 119.905 98.8984 119.913 99.6294 119.348L108.245 112.691C108.931 112.161 109.198 111.249 108.907 110.433L104.62 98.4303C104.379 97.7557 104.519 97.0058 104.971 96.4502C105.977 95.2142 106.926 93.9302 107.814 92.6023C108.242 91.9633 108.986 91.6051 109.749 91.6939L121.848 93.1007C122.765 93.2073 123.636 92.673 123.957 91.8073L127.889 81.1904C128.2 80.3492 127.914 79.4035 127.189 78.8758L116.953 71.4313C116.362 71.0018 116.055 70.2851 116.13 69.5587C116.302 67.8956 116.394 66.2087 116.402 64.5021C116.412 62.3918 128.481 58.4629 128.481 58.4629C129.32 58.0432 129.755 57.0969 129.528 56.1865L126.769 45.151C126.557 44.3047 125.822 43.6928 124.951 43.6384L112.886 42.8843C112.152 42.8384 111.506 42.3931 111.182 41.7338C110.62 40.5932 110.017 39.4766 109.375 38.3859C108.992 37.7357 108.985 36.927 109.377 36.282L115.587 26.053C116.066 25.2643 115.944 24.2506 115.292 23.5982L106.939 15.2456C106.317 14.6233 105.361 14.4803 104.584 14.8932L93.793 20.6258C93.1558 20.9643 92.3873 20.9311 91.7702 20.5571C90.8181 19.9802 89.8457 19.4335 88.8542 18.9184C88.1928 18.5747 87.7593 17.9051 87.7397 17.16L87.412 4.70742C87.3884 3.80862 86.7685 3.03581 85.8962 2.81774L74.865 0.0599339C73.9777 -0.161874 73.053 0.245714 72.6181 1.05024L66.3828 12.5854C66.1779 12.9645 65.7795 13.1973 65.3487 13.1973C63.9437 13.1973 62.5521 13.2541 61.1758 13.3654C60.454 13.4238 59.7496 13.1069 59.3319 12.5153L52.1915 2.39972C51.6823 1.67827 50.7605 1.37567 49.9227 1.65492L39.2679 5.20653C38.4124 5.49168 37.8532 6.31354 37.9018 7.21398L38.5685 19.5476ZM27.6656 64.2515C27.6656 85.0633 44.5369 101.935 65.3486 101.935C86.1604 101.935 103.032 85.0633 103.032 64.2515C103.032 43.4397 86.1604 26.5685 65.3486 26.5685C44.5369 26.5685 27.6656 43.4397 27.6656 64.2515Z" fill="url(#paint0_radial)"/>
<path id="Ring" fill-rule="evenodd" clip-rule="evenodd" d="M36.3833 64C36.3833 79.8045 49.1954 92.6167 65 92.6167C80.8046 92.6167 93.6167 79.8045 93.6167 64C93.6167 48.1954 80.8046 35.3832 65 35.3832C49.1954 35.3832 36.3833 48.1954 36.3833 64ZM65 97C46.7746 97 32 82.2254 32 64C32 45.7746 46.7746 31 65 31C83.2254 31 98 45.7746 98 64C98 82.2254 83.2254 97 65 97Z" fill="#AAFB78"/>
<circle id="GreenStroke" cx="65" cy="64" r="43.5" stroke="url(#paint1_linear)" stroke-width="15" stroke-miterlimit="16"/>
</g>
<defs>
<radialGradient id="paint0_radial" cx="0" cy="0" r="1" gradientUnits="userSpaceOnUse" gradientTransform="translate(64.8935 64.8753) rotate(100) scale(65.8522 66.0447)">
<stop stop-color="#66B46B"/>
<stop offset="0.760417" stop-color="#589E81"/>
<stop offset="1" stop-color="#7AE787"/>
</radialGradient>
<linearGradient id="paint1_linear" x1="65" y1="4.99997" x2="65" y2="107" gradientUnits="userSpaceOnUse">
<stop stop-color="#12E2FF"/>
<stop offset="1" stop-color="#A9FB9C"/>
</linearGradient>
</defs>
</svg>
